<?xml version="1.0" encoding="UTF-8" standalone="no"?>
<!-- Created with Inkscape (http://www.inkscape.org/) -->

<svg
   width="210mm"
   height="297mm"
   viewBox="0 0 210 297"
   version="1.1"
   id="svg1"
   inkscape:version="1.4.2 (f4327f4, 2025-05-13)"
   sodipodi:docname="cubierta01-reporte-interno.svg"
   xml:space="preserve"
   xmlns:inkscape="http://www.inkscape.org/namespaces/inkscape"
   xmlns:sodipodi="http://sodipodi.sourceforge.net/DTD/sodipodi-0.dtd"
   xmlns:xlink="http://www.w3.org/1999/xlink"
   xmlns="http://www.w3.org/2000/svg"
   xmlns:svg="http://www.w3.org/2000/svg"><sodipodi:namedview
     id="namedview1"
     pagecolor="#ffffff"
     bordercolor="#666666"
     borderopacity="1.0"
     inkscape:showpageshadow="2"
     inkscape:pageopacity="0.0"
     inkscape:pagecheckerboard="false"
     inkscape:deskcolor="#d1d1d1"
     inkscape:document-units="mm"
     inkscape:zoom="0.70110131"
     inkscape:cx="350.16337"
     inkscape:cy="561.25983"
     inkscape:window-width="2560"
     inkscape:window-height="1385"
     inkscape:window-x="1912"
     inkscape:window-y="-8"
     inkscape:window-maximized="1"
     inkscape:current-layer="layer1" /><defs
     id="defs1"><color-profile
       name="sRGB-IEC61966-2.1"
       xlink:href="file:///C:/WINDOWS/system32/spool/drivers/color/sRGB%20Color%20Space%20Profile.icm"
       id="color-profile3" /><color-profile
       name="Adobe-RGB-1998-D65-WP-2.2-Gamma"
       xlink:href="file:///C:/WINDOWS/system32/spool/drivers/color/Adobe%20RGB%20(1998)%20D65%20WP%202.2%20Gamma.icc"
       id="color-profile4" /><clipPath
       clipPathUnits="userSpaceOnUse"
       id="clipPath2"><path
         d="M 0,841.89 H 595.276 V 0 H 0 Z"
         transform="translate(-173.8623,-357.35161)"
         id="path2" /></clipPath><clipPath
       clipPathUnits="userSpaceOnUse"
       id="clipPath4"><path
         d="M 0,841.89 H 595.276 V 0 H 0 Z"
         transform="translate(-186.4746,-357.35161)"
         id="path4" /></clipPath><clipPath
       clipPathUnits="userSpaceOnUse"
       id="clipPath6"><path
         d="M 0,841.89 H 595.276 V 0 H 0 Z"
         transform="translate(-199.165,-357.35161)"
         id="path6" /></clipPath><clipPath
       clipPathUnits="userSpaceOnUse"
       id="clipPath8"><path
         d="M 0,841.89 H 595.276 V 0 H 0 Z"
         transform="translate(-211.7383,-357.35161)"
         id="path8" /></clipPath><clipPath
       clipPathUnits="userSpaceOnUse"
       id="clipPath10"><path
         d="M 0,841.89 H 595.276 V 0 H 0 Z"
         transform="translate(-225.02251,-354.42581)"
         id="path10" /></clipPath><clipPath
       clipPathUnits="userSpaceOnUse"
       id="clipPath12"><path
         d="M 0,841.89 H 595.276 V 0 H 0 Z"
         transform="translate(-235.5391,-342.09081)"
         id="path12" /></clipPath><clipPath
       clipPathUnits="userSpaceOnUse"
       id="clipPath14"><path
         d="M 0,841.89 H 595.276 V 0 H 0 Z"
         transform="translate(-250.0879,-357.35161)"
         id="path14" /></clipPath><clipPath
       clipPathUnits="userSpaceOnUse"
       id="clipPath16"><path
         d="M 0,841.89 H 595.276 V 0 H 0 Z"
         transform="translate(-270.4492,-342.40721)"
         id="path16" /></clipPath><clipPath
       clipPathUnits="userSpaceOnUse"
       id="clipPath18"><path
         d="M 0,841.89 H 595.276 V 0 H 0 Z"
         transform="translate(-283.65531,-357.35161)"
         id="path18" /></clipPath><clipPath
       clipPathUnits="userSpaceOnUse"
       id="clipPath20"><path
         d="M 0,841.89 H 595.276 V 0 H 0 Z"
         transform="translate(-296.7412,-342.40721)"
         id="path20" /></clipPath><clipPath
       clipPathUnits="userSpaceOnUse"
       id="clipPath22"><path
         d="M 0,841.89 H 595.276 V 0 H 0 Z"
         transform="translate(-307.92971,-342.09081)"
         id="path22" /></clipPath><clipPath
       clipPathUnits="userSpaceOnUse"
       id="clipPath24"><path
         d="M 0,841.89 H 595.276 V 0 H 0 Z"
         transform="translate(-322.36041,-357.35161)"
         id="path24" /></clipPath><clipPath
       clipPathUnits="userSpaceOnUse"
       id="clipPath26"><path
         d="M 0,841.89 H 595.276 V 0 H 0 Z"
         transform="translate(-341.85061,-357.35161)"
         id="path26" /></clipPath><clipPath
       clipPathUnits="userSpaceOnUse"
       id="clipPath28"><path
         d="M 0,841.89 H 595.276 V 0 H 0 Z"
         transform="translate(-355.17481,-357.35161)"
         id="path28" /></clipPath><clipPath
       clipPathUnits="userSpaceOnUse"
       id="clipPath30"><path
         d="M 0,841.89 H 595.276 V 0 H 0 Z"
         transform="translate(-374.42771,-360.87011)"
         id="path30" /></clipPath><clipPath
       clipPathUnits="userSpaceOnUse"
       id="clipPath32"><path
         d="M 0,841.89 H 595.276 V 0 H 0 Z"
         transform="translate(-382.81051,-364.86331)"
         id="path32" /></clipPath><clipPath
       clipPathUnits="userSpaceOnUse"
       id="clipPath34"><path
         d="M 0,841.89 H 595.276 V 0 H 0 Z"
         transform="translate(-390.32231,-342.09081)"
         id="path34" /></clipPath><clipPath
       clipPathUnits="userSpaceOnUse"
       id="clipPath36"><path
         d="M 0,841.89 H 595.276 V 0 H 0 Z"
         id="path36" /></clipPath><clipPath
       clipPathUnits="userSpaceOnUse"
       id="clipPath38"><path
         d="M 0,841.89 H 595.276 V 0 H 0 Z"
         transform="translate(-408.82521,-342.09081)"
         id="path38" /></clipPath><clipPath
       clipPathUnits="userSpaceOnUse"
       id="clipPath40"><path
         d="M 0,841.89 H 595.276 V 0 H 0 Z"
         transform="translate(-423.45311,-357.35161)"
         id="path40" /></clipPath><clipPath
       clipPathUnits="userSpaceOnUse"
       id="clipPath42"><path
         d="M 0,841.89 H 595.276 V 0 H 0 Z"
         transform="translate(-171.4141,-377.38571)"
         id="path42" /></clipPath><clipPath
       clipPathUnits="userSpaceOnUse"
       id="clipPath44"><path
         d="M 0,841.89 H 595.276 V 0 H 0 Z"
         transform="translate(-179.8359,-377.38571)"
         id="path44" /></clipPath><clipPath
       clipPathUnits="userSpaceOnUse"
       id="clipPath46"><path
         d="M 0,841.89 H 595.276 V 0 H 0 Z"
         id="path46" /></clipPath><clipPath
       clipPathUnits="userSpaceOnUse"
       id="clipPath48"><path
         d="M 0,841.89 H 595.276 V 0 H 0 Z"
         transform="translate(-189.02541,-377.38571)"
         id="path48" /></clipPath><clipPath
       clipPathUnits="userSpaceOnUse"
       id="clipPath50"><path
         d="M 0,841.89 H 595.276 V 0 H 0 Z"
         transform="translate(-198.10251,-388.37011)"
         id="path50" /></clipPath><clipPath
       clipPathUnits="userSpaceOnUse"
       id="clipPath52"><path
         d="M 0,841.89 H 595.276 V 0 H 0 Z"
         transform="translate(-206.29591,-385.97951)"
         id="path52" /></clipPath><clipPath
       clipPathUnits="userSpaceOnUse"
       id="clipPath54"><path
         d="M 0,841.89 H 595.276 V 0 H 0 Z"
         transform="translate(-213.23731,-388.11431)"
         id="path54" /></clipPath><clipPath
       clipPathUnits="userSpaceOnUse"
       id="clipPath56"><path
         d="M 0,841.89 H 595.276 V 0 H 0 Z"
         id="path56" /></clipPath><clipPath
       clipPathUnits="userSpaceOnUse"
       id="clipPath58"><path
         d="M 0,841.89 H 595.276 V 0 H 0 Z"
         transform="translate(-224.67481,-388.37011)"
         id="path58" /></clipPath><clipPath
       clipPathUnits="userSpaceOnUse"
       id="clipPath60"><path
         d="M 0,841.89 H 595.276 V 0 H 0 Z"
         transform="translate(-233.23731,-388.37011)"
         id="path60" /></clipPath><clipPath
       clipPathUnits="userSpaceOnUse"
       id="clipPath62"><path
         d="M 0,841.89 H 595.276 V 0 H 0 Z"
         transform="translate(-241.80181,-388.37011)"
         id="path62" /></clipPath><clipPath
       clipPathUnits="userSpaceOnUse"
       id="clipPath64"><path
         d="M 0,841.89 H 595.276 V 0 H 0 Z"
         transform="translate(-254.917,-388.37011)"
         id="path64" /></clipPath><clipPath
       clipPathUnits="userSpaceOnUse"
       id="clipPath66"><path
         d="M 0,841.89 H 595.276 V 0 H 0 Z"
         transform="translate(-263.39451,-388.37011)"
         id="path66" /></clipPath><clipPath
       clipPathUnits="userSpaceOnUse"
       id="clipPath68"><path
         d="M 0,841.89 H 595.276 V 0 H 0 Z"
         transform="translate(-276.3955,-388.37011)"
         id="path68" /></clipPath><clipPath
       clipPathUnits="userSpaceOnUse"
       id="clipPath70"><path
         d="M 0,841.89 H 595.276 V 0 H 0 Z"
         transform="translate(-284.67481,-377.38571)"
         id="path70" /></clipPath><clipPath
       clipPathUnits="userSpaceOnUse"
       id="clipPath72"><path
         d="M 0,841.89 H 595.276 V 0 H 0 Z"
         transform="translate(-293.06841,-388.37011)"
         id="path72" /></clipPath><clipPath
       clipPathUnits="userSpaceOnUse"
       id="clipPath74"><path
         d="M 0,841.89 H 595.276 V 0 H 0 Z"
         transform="translate(-301.26171,-377.38571)"
         id="path74" /></clipPath><clipPath
       clipPathUnits="userSpaceOnUse"
       id="clipPath76"><path
         d="M 0,841.89 H 595.276 V 0 H 0 Z"
         transform="translate(-309.62701,-388.37011)"
         id="path76" /></clipPath><clipPath
       clipPathUnits="userSpaceOnUse"
       id="clipPath78"><path
         d="M 0,841.89 H 595.276 V 0 H 0 Z"
         transform="translate(-317.05271,-388.11431)"
         id="path78" /></clipPath><clipPath
       clipPathUnits="userSpaceOnUse"
       id="clipPath80"><path
         d="M 0,841.89 H 595.276 V 0 H 0 Z"
         transform="translate(-329.71391,-388.37011)"
         id="path80" /></clipPath><clipPath
       clipPathUnits="userSpaceOnUse"
       id="clipPath82"><path
         d="M 0,841.89 H 595.276 V 0 H 0 Z"
         id="path82" /></clipPath><clipPath
       clipPathUnits="userSpaceOnUse"
       id="clipPath84"><path
         d="M 0,841.89 H 595.276 V 0 H 0 Z"
         transform="translate(-341.54791,-385.97951)"
         id="path84" /></clipPath><clipPath
       clipPathUnits="userSpaceOnUse"
       id="clipPath86"><path
         d="M 0,841.89 H 595.276 V 0 H 0 Z"
         transform="translate(-349.25781,-388.37011)"
         id="path86" /></clipPath><clipPath
       clipPathUnits="userSpaceOnUse"
       id="clipPath88"><path
         d="M 0,841.89 H 595.276 V 0 H 0 Z"
         transform="translate(-356.65431,-388.11431)"
         id="path88" /></clipPath><clipPath
       clipPathUnits="userSpaceOnUse"
       id="clipPath90"><path
         d="M 0,841.89 H 595.276 V 0 H 0 Z"
         id="path90" /></clipPath><clipPath
       clipPathUnits="userSpaceOnUse"
       id="clipPath92"><path
         d="M 0,841.89 H 595.276 V 0 H 0 Z"
         transform="translate(-379.95511,-388.37011)"
         id="path92" /></clipPath><clipPath
       clipPathUnits="userSpaceOnUse"
       id="clipPath94"><path
         d="M 0,841.89 H 595.276 V 0 H 0 Z"
         transform="translate(-387.21001,-377.38571)"
         id="path94" /></clipPath><clipPath
       clipPathUnits="userSpaceOnUse"
       id="clipPath96"><path
         d="M 0,841.89 H 595.276 V 0 H 0 Z"
         transform="translate(-394.63571,-388.37011)"
         id="path96" /></clipPath><clipPath
       clipPathUnits="userSpaceOnUse"
       id="clipPath98"><path
         d="M 0,841.89 H 595.276 V 0 H 0 Z"
         transform="translate(-400.78031,-377.15821)"
         id="path98" /></clipPath><clipPath
       clipPathUnits="userSpaceOnUse"
       id="clipPath100"><path
         d="M 0,841.89 H 595.276 V 0 H 0 Z"
         transform="translate(-408.74611,-377.15821)"
         id="path100" /></clipPath><clipPath
       clipPathUnits="userSpaceOnUse"
       id="clipPath102"><path
         d="M 0,841.89 H 595.276 V 0 H 0 Z"
         transform="translate(-418.79001,-388.37011)"
         id="path102" /></clipPath><clipPath
       clipPathUnits="userSpaceOnUse"
       id="clipPath104"><path
         d="M 0,841.89 H 595.276 V 0 H 0 Z"
         transform="translate(-426.49901,-388.11431)"
         id="path104" /></clipPath><clipPath
       clipPathUnits="userSpaceOnUse"
       id="clipPath106"><path
         d="M 0,841.89 H 595.276 V 0 H 0 Z"
         transform="translate(-290.3545,-449.65381)"
         id="path106" /></clipPath><linearGradient
       x1="0"
       y1="0"
       x2="1"
       y2="0"
       gradientUnits="userSpaceOnUse"
       gradientTransform="matrix(11.026313,0,0,11.033047,163.5572,31.432481)"
       spreadMethod="pad"
       id="linearGradient108"><stop
         style="stop-opacity:1;stop-color:#04667c icc-color(sRGB-IEC61966-2.1, 0.01568604, 0.3999939, 0.48626709);"
         offset="0"
         id="stop106" /><stop
         style="stop-opacity:1;stop-color:#02424c icc-color(sRGB-IEC61966-2.1, 0.00784302, 0.25881958, 0.29803467);"
         offset="0.5"
         id="stop107" /><stop
         style="stop-opacity:1;stop-color:#04667c icc-color(sRGB-IEC61966-2.1, 0.01568604, 0.3999939, 0.48626709);"
         offset="1"
         id="stop108" /></linearGradient><style
       type="text/css"
       id="style1">*{stroke-linejoin: round; stroke-linecap: butt}</style><clipPath
       id="pebfe77e7a9"><rect
         x="93.141"
         y="41.472"
         width="266.112"
         height="266.112"
         id="rect12" /></clipPath><clipPath
       clipPathUnits="userSpaceOnUse"
       id="clipPath149"><rect
         style="fill:#bacfa6;fill-opacity:1;fill-rule:evenodd;stroke:none;stroke-width:0.765619;stroke-linecap:round;stroke-linejoin:miter;stroke-miterlimit:0;stroke-dasharray:none;stroke-opacity:1;paint-order:fill markers stroke"
         id="rect149"
         width="379.63126"
         height="333.18372"
         x="275.62585"
         y="-592.9317"
         transform="matrix(0.14140427,0.98995193,-0.39583306,0.91832249,0,0)" /></clipPath></defs><g
     inkscape:label="Capa 1"
     inkscape:groupmode="layer"
     id="layer1"><rect
       style="fill:#a6a8cf;fill-opacity:1;fill-rule:evenodd;stroke:none;stroke-width:0.553;stroke-linecap:round;stroke-linejoin:miter;stroke-miterlimit:0;stroke-dasharray:none;stroke-opacity:1;paint-order:fill markers stroke"
       id="rect107"
       width="210"
       height="297"
       x="0"
       y="0" /></g><g
     id="axes_1"
     style="stroke:#e1e1e1;stroke-width:0.260238;stroke-dasharray:none;stroke-opacity:1"
     transform="matrix(0.97369523,-1.6914426,0.41970089,0.24160487,-152.46751,528.53937)"
     clip-path="url(#clipPath149)"><g
       id="Line3DCollection_1"
       style="stroke:#e1e1e1;stroke-width:0.260238;stroke-dasharray:none;stroke-opacity:1"><path
         d="m 142.55492,215.02208 4.32966,5.81233 1.5459,1.68162 1.23629,1.05896 1.08137,0.67292 1.08097,0.40651 0.9262,0.12036 0.9259,-0.0993 0.9256,-0.32278 0.92531,-0.54521 1.07921,-0.90892 1.23304,-1.3756 1.38687,-1.92652 1.69491,-2.78404 2.77418,-5.09422 2.6223,-4.64424 1.54415,-2.2909 1.23638,-1.45367 1.08269,-0.92973 0.92869,-0.50788 0.77439,-0.2023 0.77484,0.009 0.77527,0.22771 0.77571,0.45017 0.9314,0.83468 0.93197,1.15097 1.08796,1.72624 1.24417,2.4394 1.40051,3.25823 1.86832,4.97621 5.45042,15.013 1.40066,2.97699 1.08892,1.80226 0.93297,1.11486 0.7772,0.58774 0.62156,0.22805 0.6214,-6e-5 0.62122,-0.23862 0.62106,-0.48614 0.62089,-0.74106 0.7759,-1.29343 0.77568,-1.70805 0.93056,-2.60095 1.08535,-3.78935 1.24013,-5.29798 1.39498,-7.11862 1.55005,-9.19147 1.86064,-12.47295 2.79334,-20.52329 3.88717,-28.4112 1.8697,-11.98229 1.40402,-7.73727 1.24923,-5.76462 1.09398,-4.06932 0.93833,-2.70263 0.78234,-1.66933 0.62613,-0.94204 0.62632,-0.58587 0.46986,-0.2034 0.46996,-2.3e-4 0.47005,0.20296 0.62686,0.58541 0.62698,0.94182 0.78387,1.66959 0.78399,2.20157 0.94091,3.3144 1.0978,4.73605 1.25463,6.45067 1.5681,9.39168 1.8812,12.75611 3.13362,23.12391 3.28799,23.7627 1.87815,12.05886 1.56502,8.73074 1.40864,6.63523 1.25237,4.82986 1.0961,3.36172 0.9398,2.2287 0.78339,1.3984 0.78362,0.98789 0.62708,0.5018 0.62725,0.25321 0.62743,0.0135 0.62762,-0.21571 0.62782,-0.43317 0.78504,-0.82729 0.94246,-1.37472 1.10011,-2.06339 1.25799,-2.85309 1.73094,-4.53231 5.82967,-15.83198 1.41893,-3.02711 1.26131,-2.19292 1.10357,-1.48698 0.94583,-0.93391 0.9457,-0.61124 0.78797,-0.26229 0.78786,-0.041 0.78774,0.17395 0.78761,0.37961 0.94497,0.70989 1.10225,1.14636 1.25946,1.67044 1.57403,2.50768 2.3608,4.26979 3.30585,5.95041 1.73265,2.64467 1.41842,1.75576 1.26155,1.1907 1.1045,0.72885 0.94722,0.38225 0.94772,0.1561 0.94823,-0.0671 0.94873,-0.28263 1.1075,-0.58566 1.10818,-0.836 1.42572,-1.38914 1.74383,-2.06382 2.8559,-3.81447 0.47619,-0.64283 v 0"
         clip-path="url(#pebfe77e7a9)"
         style="fill:none;stroke:#e1e1e1;stroke-width:0.260238;stroke-dasharray:none;stroke-opacity:1"
         id="path3-4" /><path
         d="m 145.71171,213.83463 4.43058,5.30535 1.52749,1.45699 1.37434,0.99968 1.06859,0.5309 1.06827,0.28935 0.9154,0.0431 0.91515,-0.15279 1.06739,-0.42814 1.0671,-0.69283 1.21925,-1.09947 1.37141,-1.59046 1.52365,-2.12929 2.13336,-3.40301 3.81245,-6.13815 1.52675,-2.02437 1.22234,-1.28431 1.0703,-0.82117 0.91798,-0.44829 0.91854,-0.19167 0.76588,0.047 0.76625,0.24112 0.92,0.54952 0.92052,0.83278 1.07456,1.32068 1.07515,1.67636 1.22939,2.30952 1.53752,3.37886 2.15348,5.34164 3.69218,9.24347 1.53789,3.22391 1.22989,2.06399 0.92211,1.1692 0.76821,0.68891 0.76801,0.40345 0.61425,0.10253 0.61413,-0.10398 0.614,-0.31908 0.61388,-0.54142 0.76718,-0.99819 0.76701,-1.36268 0.92021,-2.12206 1.07337,-3.14587 1.07321,-3.85295 1.22643,-5.2293 1.37978,-6.85012 1.68678,-9.56411 2.14796,-13.57102 6.30383,-40.81871 1.69557,-9.04367 1.3887,-6.20509 1.08093,-3.9502 0.92705,-2.71341 0.92751,-2.05299 0.77325,-1.18563 0.61879,-0.59617 0.61894,-0.27887 0.4643,2.2e-4 0.46437,0.17976 0.61925,0.51785 0.61935,0.83279 0.77431,1.47599 0.77439,1.9461 0.92935,2.92962 1.08429,4.18611 1.23916,5.70159 1.54875,8.30124 1.85803,11.27557 3.09527,20.44199 3.24823,21.00972 1.85568,10.66312 1.54642,7.72086 1.39199,5.86817 1.23762,4.27184 1.08323,2.97357 0.92878,1.97157 0.92909,1.44085 0.7745,0.80264 0.77475,0.45141 0.62001,0.11736 0.62018,-0.0901 0.62036,-0.28779 0.77572,-0.62085 0.93126,-1.09627 1.08702,-1.70561 1.24299,-2.41554 1.55473,-3.53586 2.80087,-7.05202 2.49152,-6.05163 1.55769,-3.27695 1.40204,-2.45142 1.24624,-1.70934 1.09037,-1.09902 0.93449,-0.63507 0.93437,-0.34881 0.77853,-0.0744 0.77843,0.117 0.93397,0.38198 0.93381,0.62839 1.08927,1.01439 1.24466,1.47788 1.55559,2.21836 2.33322,3.77697 3.26732,5.26377 1.71244,2.33975 1.40184,1.55356 1.24678,1.05383 1.09153,0.64532 1.09212,0.37574 0.93661,0.10559 0.93708,-0.0909 1.09386,-0.34425 1.0945,-0.58285 1.2516,-0.92592 1.40894,-1.31721 1.87987,-2.08038 2.66507,-3.21402 v 0"
         clip-path="url(#pebfe77e7a9)"
         style="fill:none;stroke:#e1e1e1;stroke-width:0.260238;stroke-dasharray:none;stroke-opacity:1"
         id="path4-9" /><path
         d="m 148.79468,212.67495 4.37836,4.69565 1.66056,1.40232 1.35832,0.85231 1.20707,0.48675 1.05592,0.19276 1.05566,-0.0385 1.05541,-0.27589 1.05518,-0.51253 1.20569,-0.86491 1.20551,-1.13991 1.50677,-1.75691 1.95892,-2.68819 5.12749,-7.29037 1.35905,-1.49157 1.20887,-1.01809 1.05844,-0.60677 0.90776,-0.28411 0.90824,-0.0502 0.90873,0.19443 0.90921,0.44477 0.90966,0.69568 1.06181,1.12209 1.21416,1.67008 1.36664,2.32234 1.67117,3.35493 2.43179,5.48691 3.04008,6.77221 1.51968,2.85256 1.21543,1.82648 0.91135,1.03484 0.91113,0.70225 0.75911,0.30456 0.75896,0.0293 0.60705,-0.18573 0.75869,-0.50514 0.75856,-0.81854 0.75844,-1.13974 0.90998,-1.7977 1.06151,-2.69073 1.06141,-3.31874 1.21301,-4.52904 1.36475,-5.96119 1.66843,-8.36041 2.12458,-11.91873 6.53867,-37.74823 1.52412,-7.21553 1.37286,-5.48342 1.22117,-3.92929 0.91636,-2.3022 0.91674,-1.71373 0.76421,-0.96128 0.61153,-0.45649 0.61164,-0.17549 0.61175,0.10662 0.61184,0.38815 0.61193,0.66734 0.76499,1.22049 0.76507,1.63877 0.91813,2.49659 1.0712,3.59989 1.22417,4.93814 1.53005,7.2336 1.83565,9.88022 2.90532,17.10942 3.5154,20.41198 1.83385,9.43049 1.52833,6.82888 1.37578,5.19061 1.22324,3.77888 1.07068,2.63065 0.91802,1.7444 0.91834,1.27504 0.76554,0.71047 0.7658,0.39984 0.61282,0.10429 0.61301,-0.0792 0.7665,-0.34375 0.76678,-0.5976 0.92052,-1.02186 1.07445,-1.56057 1.22861,-2.1832 1.69038,-3.50138 6.15425,-13.27009 1.3855,-2.26754 1.23156,-1.61273 1.07756,-1.0665 0.92354,-0.64494 0.92344,-0.39196 0.92332,-0.14032 0.92319,0.10478 0.92305,0.33851 1.07673,0.66897 1.07657,0.93341 1.38395,1.5266 1.69129,2.23721 3.38274,4.98431 2.30736,3.16897 1.53906,1.76858 1.38589,1.26467 1.23259,0.82308 1.07908,0.47008 1.07966,0.22994 1.08025,-0.009 1.08084,-0.24 1.08144,-0.45629 1.23664,-0.75971 1.39205,-1.11141 1.85731,-1.79325 2.94295,-3.16263 v 0"
         clip-path="url(#pebfe77e7a9)"
         style="fill:none;stroke:#e1e1e1;stroke-width:0.260238;stroke-dasharray:none;stroke-opacity:1"
         id="path5-3" /><path
         d="m 151.80638,211.54207 4.32753,4.15692 1.64141,1.24172 1.34274,0.75498 1.19331,0.4315 1.19307,0.17931 1.04372,-0.063 1.04354,-0.27331 1.19241,-0.56751 1.19225,-0.82728 1.34117,-1.21169 1.63919,-1.81456 2.23568,-2.85676 3.5796,-4.59764 1.64226,-1.72058 1.19517,-0.96908 1.04637,-0.60629 1.04693,-0.35015 0.89785,-0.0789 0.89826,0.13616 0.89869,0.35703 0.89909,0.5792 1.04943,0.95168 1.19992,1.43392 1.35057,2.01197 1.65146,2.92889 2.25288,4.51891 3.30481,6.61542 1.50197,2.52444 1.20135,1.61658 1.05097,1.0411 0.90067,0.56961 0.75044,0.22256 0.75032,-0.024 0.75022,-0.28439 0.75013,-0.55612 0.75003,-0.83646 0.89995,-1.38163 0.89986,-1.79751 1.04979,-2.61922 1.19975,-3.66225 1.34984,-4.9208 1.50012,-6.35327 1.80085,-8.62033 2.70339,-14.18054 3.76032,-19.62216 1.80758,-8.27208 1.50761,-5.87929 1.2069,-3.87951 1.05657,-2.71243 0.906,-1.77734 0.75522,-1.07586 0.75541,-0.69625 0.60445,-0.27903 0.60454,-0.0299 0.60462,0.21938 0.60468,0.4674 0.75594,0.92861 0.756,1.30289 0.90725,2.03995 1.05848,3.0012 1.20965,4.18051 1.36074,5.53945 1.66285,7.73711 2.41802,12.48062 4.68302,24.45324 1.81263,8.25304 1.51075,5.94777 1.36001,4.49727 1.20928,3.2535 1.05847,2.24687 0.90757,1.47417 0.9079,1.05996 0.75683,0.57334 0.75709,0.30052 0.75734,0.039 0.75761,-0.20877 0.75789,-0.44036 0.90981,-0.80835 1.06194,-1.28457 1.21427,-1.84384 1.51872,-2.72617 2.58375,-5.1836 2.73764,-5.34896 1.67355,-2.79301 1.36938,-1.86904 1.21721,-1.28888 1.06499,-0.81516 0.91277,-0.4579 0.91267,-0.23418 0.91256,-0.014 0.91246,0.19827 1.06438,0.48323 1.06424,0.72994 1.21612,1.09561 1.51999,1.68051 2.12791,2.71687 3.95302,5.08685 1.67352,1.77024 1.36995,1.15267 1.21836,0.76162 1.21902,0.49321 1.06721,0.20422 1.06776,-0.007 1.06832,-0.21142 1.2216,-0.47486 1.37513,-0.79795 1.52888,-1.15402 2.14187,-1.93334 2.14316,-2.07458 v 0"
         clip-path="url(#pebfe77e7a9)"
         style="fill:none;stroke:#e1e1e1;stroke-width:0.260238;stroke-dasharray:none;stroke-opacity:1"
         id="path6-5" /><path
         d="m 154.74926,210.43508 4.42554,3.79144 1.62273,1.07477 1.32752,0.64266 1.17985,0.35584 1.17967,0.13049 1.17949,-0.1082 1.17932,-0.35123 1.17919,-0.58912 1.32648,-0.9284 1.47385,-1.31921 1.91621,-2.05558 5.75336,-6.45241 1.32937,-1.0761 1.18234,-0.69724 1.03508,-0.37595 1.0356,-0.13442 0.88807,0.089 0.88843,0.28377 1.03697,0.57947 1.03742,0.84265 1.18615,1.26936 1.335,1.78082 1.63235,2.59218 2.37524,4.27472 3.11813,5.57937 1.48471,2.23444 1.18763,1.43108 1.03903,0.92186 0.89048,0.50462 0.74199,0.19746 0.74191,-0.0206 0.74184,-0.25103 0.74178,-0.49141 0.74174,-0.73941 0.89002,-1.2216 0.88999,-1.5895 1.03831,-2.31627 1.1867,-3.23881 1.33521,-4.3519 1.48391,-5.61875 1.78142,-7.62351 2.67414,-12.54 3.7192,-17.35011 1.78755,-7.31339 1.49076,-5.19747 1.19329,-3.42932 1.04459,-2.39743 0.89567,-1.57073 0.74658,-0.95062 0.74673,-0.61496 0.59749,-0.24619 0.59756,-0.026 0.59762,0.19448 0.59768,0.41378 0.74716,0.82169 0.7472,1.15263 0.89667,1.80446 1.04613,2.65454 1.19554,3.6975 1.34486,4.89934 1.64347,6.84314 2.38993,11.039 4.62915,21.63098 1.79195,7.30141 1.49358,5.26233 1.3446,3.97928 1.19559,2.879 1.04651,1.98844 0.89732,1.30479 0.89762,0.93838 0.74828,0.50778 0.74852,0.26644 0.74877,0.035 0.74903,-0.18411 0.89917,-0.48997 0.89954,-0.75676 1.04993,-1.17809 1.35061,-1.89779 1.65173,-2.73707 6.01279,-10.37258 1.50399,-1.94629 1.20322,-1.21994 1.05277,-0.79536 1.05269,-0.52935 1.05259,-0.26003 0.90213,-0.0117 1.05235,0.22299 1.05223,0.46094 1.20241,0.78787 1.35256,1.16714 1.65302,1.72857 3.00571,3.54126 2.55587,2.86176 1.65469,1.53841 1.35452,0.99142 1.35524,0.70986 1.20532,0.37628 1.20597,0.13066 1.20664,-0.11069 1.20731,-0.33874 1.35901,-0.62646 1.51092,-0.95145 1.96546,-1.52563 2.72324,-2.34421 v 0"
         clip-path="url(#pebfe77e7a9)"
         style="fill:none;stroke:#e1e1e1;stroke-width:0.260238;stroke-dasharray:none;stroke-opacity:1"
         id="path7-2" /><path
         d="m 157.62565,209.35311 4.37561,3.35795 1.75038,1.02568 1.45853,0.59284 1.31252,0.28684 1.16656,0.0381 1.16644,-0.17545 1.16634,-0.38977 1.31206,-0.68471 1.45782,-1.03775 1.74951,-1.55819 2.47914,-2.55806 3.21049,-3.26129 1.60654,-1.31598 1.31521,-0.80502 1.16969,-0.46106 1.02397,-0.18081 1.02443,0.0433 1.02488,0.27685 1.02532,0.51346 1.17228,0.87138 1.17278,1.15847 1.31988,1.6103 1.6138,2.32574 2.49496,4.04742 2.78905,4.45062 1.4679,1.97811 1.17424,1.2671 1.02737,0.81644 0.88053,0.44716 0.88047,0.18756 0.73367,-0.0577 0.73364,-0.26344 0.73361,-0.47764 0.8803,-0.86464 0.88028,-1.18855 1.02702,-1.7978 1.1738,-2.58812 1.17394,-3.13278 1.46773,-4.61761 1.61505,-5.84903 2.20358,-8.91569 5.73818,-23.78295 1.621,-5.60136 1.32706,-3.86808 1.18016,-2.79473 1.033,-1.89234 0.88568,-1.18253 0.73822,-0.66273 0.73833,-0.3624 0.59074,-0.0712 0.59079,0.12379 0.59083,0.31809 0.7386,0.66783 0.73863,0.96208 0.88638,1.52996 1.03412,2.27587 1.18181,3.19632 1.32943,4.26269 1.62465,5.9872 2.21502,9.08617 5.16727,21.52897 1.77186,6.31639 1.47692,4.50748 1.32965,3.37116 1.18233,2.40636 1.03492,1.63327 0.8874,1.04653 0.8877,0.72421 0.88803,0.41068 0.74029,0.11228 0.74053,-0.0862 0.88896,-0.34844 0.88931,-0.59313 1.03797,-0.96525 1.18682,-1.40579 1.63277,-2.32631 2.67374,-4.29532 2.67545,-4.15295 1.63547,-2.14741 1.33822,-1.42389 1.18952,-0.97035 1.18947,-0.66952 1.0407,-0.33122 1.04061,-0.0944 1.0405,0.13485 1.04041,0.35033 1.18891,0.63927 1.3374,0.97978 1.63452,1.48485 2.67482,2.79526 2.97312,3.03139 1.7849,1.49931 1.48821,0.96078 1.34011,0.5999 1.19182,0.30672 1.19244,0.0895 1.19307,-0.12302 1.34294,-0.37622 1.49305,-0.67867 1.64335,-1.00069 2.39192,-1.75465 1.64529,-1.27539 v 0"
         clip-path="url(#pebfe77e7a9)"
         style="fill:none;stroke:#e1e1e1;stroke-width:0.260238;stroke-dasharray:none;stroke-opacity:1"
         id="path8-1" /><path
         d="m 160.43777,208.29531 4.47116,3.06005 1.731,0.88661 1.44243,0.50176 1.29811,0.23023 1.29801,-5.5e-4 1.29793,-0.24063 1.29787,-0.4783 1.44207,-0.79226 1.58638,-1.14494 2.01938,-1.75776 5.05222,-4.56277 1.58948,-1.05498 1.3012,-0.59687 1.15718,-0.28952 1.01298,-0.0472 1.01338,0.15651 1.01377,0.36544 1.15905,0.67225 1.15952,0.93309 1.30493,1.33439 1.59551,1.97347 2.17649,3.09469 3.62854,5.2083 1.4515,1.71779 1.16116,1.08581 1.01598,0.68517 0.8708,0.35953 0.87077,0.1264 0.87075,-0.12523 0.87073,-0.39197 0.87073,-0.66997 0.87074,-0.95515 1.0159,-1.47831 1.01599,-1.8669 1.16126,-2.59392 1.30668,-3.46678 1.59754,-4.93121 1.88889,-6.59893 3.34484,-12.68976 2.7664,-10.11476 1.74875,-5.58317 1.45815,-3.91482 1.16702,-2.54192 1.02147,-1.74054 0.87576,-1.10633 0.87593,-0.73412 0.73004,-0.31994 0.73013,-0.0512 0.7302,0.21816 0.73024,0.48549 0.73028,0.74828 0.87635,1.23473 1.02243,1.88325 1.16845,2.69297 1.31442,3.64115 1.60635,5.1741 2.04414,7.3924 5.98557,22.17711 1.75232,5.38707 1.46072,3.78432 1.31512,2.78015 1.16944,1.9402 1.02365,1.27744 0.87773,0.78338 0.87805,0.50154 0.87837,0.22956 0.8787,-0.0286 0.87903,-0.26944 0.87938,-0.48965 1.02635,-0.8183 1.32023,-1.37942 1.61451,-2.05713 2.79068,-4.01248 2.49843,-3.45838 1.61707,-1.89869 1.32316,-1.25874 1.17616,-0.85759 1.17612,-0.59143 1.02904,-0.29224 1.02897,-0.0827 1.02888,0.12011 1.17577,0.36976 1.32262,0.68088 1.46948,1.02925 1.91031,1.64264 5.88036,5.30784 1.61853,1.05902 1.47218,0.68984 1.32567,0.37351 1.32639,0.13053 1.32714,-0.10837 1.32786,-0.33185 1.47623,-0.59932 1.77254,-0.97373 2.51277,-1.66578 1.33091,-0.92238 v 0"
         clip-path="url(#pebfe77e7a9)"
         style="fill:none;stroke:#e1e1e1;stroke-width:0.260238;stroke-dasharray:none;stroke-opacity:1"
         id="path9-2" /><path
         d="m 163.18776,207.26088 4.56472,2.78574 1.71208,0.76561 1.56939,0.45361 1.42667,0.16583 1.28396,-0.0699 1.28394,-0.28284 1.42661,-0.55677 1.56935,-0.87956 1.85495,-1.32862 2.99757,-2.49541 2.57103,-2.04545 1.71515,-1.08316 1.43006,-0.62857 1.14459,-0.28185 1.14506,-0.0611 1.14555,0.17422 1.14599,0.41582 1.14644,0.65475 1.29021,1.00691 1.43409,1.41702 1.72152,2.02625 3.30081,4.33446 2.15317,2.62558 1.43551,1.42474 1.14841,0.86013 1.00485,0.50192 0.8613,0.2179 0.8613,0.003 0.8613,-0.22674 0.86133,-0.46823 0.86135,-0.71789 1.00498,-1.15882 1.00506,-1.50485 1.1488,-2.13396 1.29266,-2.90051 1.43668,-3.78177 1.72471,-5.1783 2.4449,-8.11642 4.17561,-13.93007 1.72968,-4.99913 1.44217,-3.52875 1.15418,-2.30968 1.01019,-1.59818 0.86607,-1.03169 0.86621,-0.70436 0.72194,-0.32973 0.72201,-0.0923 0.72206,0.146 0.72211,0.38302 0.72214,0.61647 0.86658,1.03963 1.01103,1.60811 1.15542,2.32215 1.29979,3.16278 1.58849,4.52173 2.02147,6.49735 6.20843,20.53722 1.73319,4.70586 1.44481,3.28788 1.30081,2.40025 1.15673,1.66146 1.01252,1.08155 1.01292,0.73621 0.86854,0.36312 0.86885,0.12612 0.86917,-0.0976 0.86949,-0.3049 1.01481,-0.59215 1.16029,-0.94632 1.45109,-1.5042 1.8875,-2.30648 4.64996,-5.8173 1.59913,-1.59039 1.30847,-1.02417 1.30847,-0.73833 1.16305,-0.40127 1.16297,-0.15798 1.1629,0.0791 1.16281,0.30168 1.30808,0.57767 1.45336,0.88916 1.88937,1.43635 6.25239,5.00984 1.60094,0.89099 1.45616,0.56176 1.31123,0.28396 1.3119,0.0689 1.31259,-0.14036 1.45923,-0.38184 1.60608,-0.65448 2.04535,-1.09396 2.92387,-1.79053 v 0"
         clip-path="url(#pebfe77e7a9)"
         style="fill:none;stroke:#e1e1e1;stroke-width:0.260238;stroke-dasharray:none;stroke-opacity:1"
         id="path10-2" /><path
         d="m 165.87765,206.24905 4.51523,2.46907 1.83472,0.72499 1.5525,0.38117 1.41137,0.12575 1.41138,-0.10257 1.41142,-0.33464 1.41148,-0.55624 1.69395,-0.9242 2.11789,-1.44693 5.36941,-3.83827 1.55581,-0.77769 1.41506,-0.45078 1.27413,-0.15808 1.13303,0.0759 1.13344,0.28854 1.13384,0.50184 1.27602,0.80988 1.41829,1.17646 1.70255,1.72536 2.55474,2.96593 2.83941,3.23863 1.56187,1.46636 1.27795,0.90841 1.13599,0.52631 0.99402,0.20766 0.85204,-0.0297 0.85208,-0.23503 0.85212,-0.4502 0.99421,-0.80594 0.9943,-1.11267 1.1365,-1.64482 1.2788,-2.30978 1.42127,-3.09374 1.56395,-3.95691 1.99146,-5.66734 6.55256,-19.21571 1.569,-3.64852 1.28425,-2.4475 1.14188,-1.70342 0.99938,-1.09151 0.85674,-0.62251 0.85684,-0.32426 0.71411,-0.039 0.71415,0.17184 0.71418,0.38109 0.85704,0.72836 0.85706,1.0146 0.9999,1.52701 1.14271,2.16299 1.28548,2.90376 1.57103,4.10176 2.14212,6.26045 5.28401,15.74565 1.71431,4.32826 1.42906,3.07353 1.2866,2.28601 1.14407,1.62056 1.00143,1.08996 1.00179,0.78267 1.00219,0.48103 0.85933,0.18102 0.85964,-0.0212 1.00329,-0.26201 1.0037,-0.49272 1.14757,-0.80726 1.43515,-1.30253 1.86674,-2.01983 4.88626,-5.44924 1.58156,-1.37883 1.43789,-0.9607 1.2941,-0.59353 1.15029,-0.30032 1.15024,-0.0857 1.15017,0.12162 1.29388,0.36612 1.43758,0.65525 1.72509,1.05725 2.44411,1.79813 3.73959,2.73809 1.87102,1.07487 1.58401,0.65548 1.44078,0.36183 1.44154,0.12744 1.44233,-0.10333 1.58748,-0.35931 1.73282,-0.63964 2.16737,-1.0574 2.60243,-1.42994 v 0"
         clip-path="url(#pebfe77e7a9)"
         style="fill:none;stroke:#e1e1e1;stroke-width:0.260238;stroke-dasharray:none;stroke-opacity:1"
         id="path11-5" /><path
         d="m 168.50939,205.2591 4.60649,2.24622 1.81515,0.62517 1.67564,0.33734 1.53606,0.069 1.39648,-0.15159 1.53622,-0.40196 1.53637,-0.63025 1.81602,-0.9883 2.65505,-1.7336 3.35591,-2.15241 1.67909,-0.82567 1.3999,-0.46793 1.26043,-0.21119 1.26093,0.0118 1.26141,0.24831 1.26188,0.48746 1.2623,0.71781 1.40303,1.0424 1.68417,1.52849 2.66757,2.77729 2.80883,2.84838 1.5451,1.27194 1.26426,0.77481 1.12386,0.43442 0.98343,0.15267 0.98349,-0.082 0.98357,-0.33366 0.98365,-0.59731 0.98376,-0.86766 1.12446,-1.32373 1.12467,-1.67022 1.26553,-2.27049 1.54726,-3.27928 1.82938,-4.45332 2.6755,-7.1804 3.52388,-9.35884 1.83394,-4.21087 1.41135,-2.70891 1.27062,-1.95009 0.98849,-1.15666 0.98866,-0.81752 0.84753,-0.41897 0.84761,-0.15256 0.70639,0.0781 0.84771,0.33892 0.84774,0.60204 0.98904,1.02392 0.98904,1.35206 1.13031,1.91498 1.41283,2.88044 1.69529,4.02812 2.40151,6.37879 4.37961,11.70683 1.83726,4.22432 1.55515,3.01882 1.27286,2.02437 1.13185,1.43528 1.13229,1.0812 0.99113,0.65494 0.9915,0.38911 0.99189,0.13449 0.99228,-0.10395 0.99267,-0.32172 1.13495,-0.6028 1.27739,-0.92798 1.70405,-1.5397 3.2684,-3.36351 2.27491,-2.18634 1.70657,-1.34276 1.42226,-0.84922 1.28006,-0.52436 1.28005,-0.28463 1.28001,-0.0449 1.27996,0.18371 1.42212,0.44639 1.56433,0.73742 1.99105,1.20534 6.26083,4.00491 1.70909,0.73218 1.5675,0.43145 1.42575,0.17634 1.42649,-0.0302 1.56999,-0.25739 1.71369,-0.51254 2.14343,-0.89279 3.00277,-1.46483 v 0"
         clip-path="url(#pebfe77e7a9)"
         style="fill:none;stroke:#e1e1e1;stroke-width:0.260238;stroke-dasharray:none;stroke-opacity:1"
         id="path12-9" /></g></g></svg>
